<svg class="main-svg" xmlns="http://www.w3.org/2000/svg" xmlns:xlink="http://www.w3.org/1999/xlink" width="750" height="750" style="" viewBox="0 0 750 750"><rect x="0" y="0" width="750" height="750" style="fill: rgb(255, 255, 255); fill-opacity: 1;"/><defs id="defs-69ddb3"><g class="clips"/><g class="gradients"/><g class="patterns"/></defs><g class="bglayer"/><g class="layer-below"><g class="imagelayer"/><g class="shapelayer"/></g><g class="cartesianlayer"/><g class="polarlayer"/><g class="smithlayer"/><g class="ternarylayer"/><g class="geolayer"/><g class="funnelarealayer"/><g class="pielayer"/><g class="iciclelayer"/><g class="treemaplayer"/><g class="sunburstlayer"><g class="trace sunburst" stroke-linejoin="round" style="opacity: 1;"><g class="slice cursor-pointer"><path class="surface" d="M425,400L587.5,400A162.5,162.5 0,1,0 574.7045441983576,463.2044258447303L425,400A0,0 0,1,1 425,400Z" style="pointer-events: none; stroke-width: 1; fill: rgb(99, 110, 250); fill-opacity: 1; stroke: rgb(255, 255, 255); stroke-opacity: 1;"/><g class="slicetext"><text data-notex="1" class="slicetext" text-anchor="middle" x="0" y="0" style="font-family: 'Open Sans', verdana, arial, sans-serif; font-size: 12px; fill: rgb(255, 255, 255); fill-opacity: 1; white-space: pre;" transform="translate(373.682762890038,389.69076272702625)rotate(-78.55539971949509)"><tspan class="line" dy="0em" x="0" y="0">Полная занятость</tspan><tspan class="line" dy="1.3em" x="0" y="0">93.64%</tspan></text></g></g><g class="slice cursor-pointer"><path class="surface" d="M425,400L574.7045441983576,463.2044258447303A162.5,162.5 0,0,0 586.0243773335576,421.84948293072523L425,400A0,0 0,0,1 425,400Z" style="pointer-events: none; stroke-width: 1; fill: rgb(239, 85, 59); fill-opacity: 1; stroke: rgb(255, 255, 255); stroke-opacity: 1;"/><g class="slicetext"><text data-notex="1" class="slicetext" text-anchor="middle" x="0" y="0" style="font-family: 'Open Sans', verdana, arial, sans-serif; font-size: 12px; fill: rgb(68, 68, 68); fill-opacity: 1; white-space: pre;" transform="translate(540.3932722565925,429.40398509337996)scale(0.6368189167834103)rotate(15.308250503079421)"><tspan class="line" dy="0em" x="0" y="0">Частичная занятость</tspan><tspan class="line" dy="1.3em" x="0" y="0">4.21%</tspan></text></g></g><g class="slice cursor-pointer"><path class="surface" d="M425,400L586.0243773335576,421.84948293072523A162.5,162.5 0,0,0 587.3846816222818,406.12088020060406L425,400A0,0 0,0,1 425,400Z" style="pointer-events: none; stroke-width: 1; fill: rgb(0, 204, 150); fill-opacity: 1; stroke: rgb(255, 255, 255); stroke-opacity: 1;"/><g class="slicetext"><text data-notex="1" class="slicetext" text-anchor="middle" x="0" y="0" style="font-family: 'Open Sans', verdana, arial, sans-serif; font-size: 12px; fill: rgb(68, 68, 68); fill-opacity: 1; white-space: pre;" transform="translate(571.3180960301577,411.3233837686754)scale(0.40128937186943014)rotate(4.942984328312605)"><tspan class="line" dy="0em" x="0" y="0">Стажировка</tspan><tspan class="line" dy="1.3em" x="0" y="0">1.55%</tspan></text></g></g><g class="slice cursor-pointer"><path class="surface" d="M425,400L587.3846816222818,406.12088020060406A162.5,162.5 0,0,0 587.5,399.9999999999999L425,400A0,0 0,0,1 425,400Z" style="pointer-events: none; stroke-width: 1; fill: rgb(171, 99, 250); fill-opacity: 1; stroke: rgb(255, 255, 255); stroke-opacity: 1;"/><g class="slicetext"><text data-notex="1" class="slicetext" text-anchor="middle" x="0" y="0" style="font-family: 'Open Sans', verdana, arial, sans-serif; font-size: 12px; fill: rgb(68, 68, 68); fill-opacity: 1; white-space: pre;" transform="translate(577.559868216237,402.3151692384075)scale(0.1691489058303158)rotate(1.0793341057380985)"><tspan class="line" dy="0em" x="0" y="0">Проектная работа</tspan><tspan class="line" dy="1.3em" x="0" y="0">0.60%</tspan></text></g></g><g class="slice"><path class="surface" d="M587.5,400L750,400A325,325 0,1,0 361.866642566192,718.8090010949111L393.433321283096,559.4045005474555A162.5,162.5 0,1,1 587.5,400Z" style="pointer-events: none; stroke-width: 1; fill: rgb(99, 110, 250); fill-opacity: 1; stroke: rgb(255, 255, 255); stroke-opacity: 1; opacity: 0.7;"/><g class="slicetext"><text data-notex="1" class="slicetext" text-anchor="middle" x="0" y="0" style="font-family: 'Open Sans', verdana, arial, sans-serif; font-size: 12px; fill: rgb(255, 255, 255); fill-opacity: 1; white-space: pre;" transform="translate(280.57008616239494,224.28718624985632)rotate(-39.399353619123076)"><tspan class="line" dy="0em" x="0" y="0">Полный день</tspan><tspan class="line" dy="1.3em" x="0" y="0">71.89%</tspan></text></g></g><g class="slice"><path class="surface" d="M393.433321283096,559.4045005474555L361.866642566192,718.8090010949111A325,325 0,0,0 658.3515423341471,626.2124171885239L541.6757711670735,513.106208594262A162.5,162.5 0,0,1 393.433321283096,559.4045005474555Z" style="pointer-events: none; stroke-width: 1; fill: rgb(99, 110, 250); fill-opacity: 1; stroke: rgb(255, 255, 255); stroke-opacity: 1; opacity: 0.7;"/><g class="slicetext"><text data-notex="1" class="slicetext" text-anchor="middle" x="0" y="0" style="font-family: 'Open Sans', verdana, arial, sans-serif; font-size: 12px; fill: rgb(255, 255, 255); fill-opacity: 1; white-space: pre;" transform="translate(498.16524491601535,629.36207996217)"><tspan class="line" dy="0em" x="0" y="0">Удаленная работа</tspan><tspan class="line" dy="1.3em" x="0" y="0">15.86%</tspan></text></g></g><g class="slice"><path class="surface" d="M541.6757711670735,513.106208594262L658.3515423341471,626.2124171885239A325,325 0,0,0 699.2447674236631,574.3984161073172L562.1223837118316,487.1992080536586A162.5,162.5 0,0,1 541.6757711670735,513.106208594262Z" style="pointer-events: none; stroke-width: 1; fill: rgb(99, 110, 250); fill-opacity: 1; stroke: rgb(255, 255, 255); stroke-opacity: 1; opacity: 0.7;"/><g class="slicetext"><text data-notex="1" class="slicetext" text-anchor="middle" x="0" y="0" style="font-family: 'Open Sans', verdana, arial, sans-serif; font-size: 12px; fill: rgb(255, 255, 255); fill-opacity: 1; white-space: pre;" transform="translate(632.0422211467309,559.1942507581252)rotate(38.281602536740024)"><tspan class="line" dy="0em" x="0" y="0">Гибкий график</tspan><tspan class="line" dy="1.3em" x="0" y="0">3.24%</tspan></text></g></g><g class="slice"><path class="surface" d="M562.1223837118316,487.1992080536586L699.2447674236631,574.3984161073172A325,325 0,0,0 718.1574771328278,540.2985873097642L571.5787385664139,470.1492936548821A162.5,162.5 0,0,1 562.1223837118316,487.1992080536586Z" style="pointer-events: none; stroke-width: 1; fill: rgb(99, 110, 250); fill-opacity: 1; stroke: rgb(255, 255, 255); stroke-opacity: 1; opacity: 0.7;"/><g class="slicetext"><text data-notex="1" class="slicetext" text-anchor="middle" x="0" y="0" style="font-family: 'Open Sans', verdana, arial, sans-serif; font-size: 12px; fill: rgb(255, 255, 255); fill-opacity: 1; white-space: pre;" transform="translate(668.0966940927469,531.4955210903064)scale(0.8818984123913013)rotate(29.013964266113817)"><tspan class="line" dy="0em" x="0" y="0">Сменный график</tspan><tspan class="line" dy="1.3em" x="0" y="0">1.91%</tspan></text></g></g><g class="slice"><path class="surface" d="M571.5787385664139,470.1492936548821L718.1574771328278,540.2985873097642A325,325 0,0,0 724.4090883967151,526.4088516894606L574.7045441983576,463.2044258447303A162.5,162.5 0,0,1 571.5787385664139,470.1492936548821Z" style="pointer-events: none; stroke-width: 1; fill: rgb(99, 110, 250); fill-opacity: 1; stroke: rgb(255, 255, 255); stroke-opacity: 1; opacity: 0.7;"/><g class="slicetext"><text data-notex="1" class="slicetext" text-anchor="middle" x="0" y="0" style="font-family: 'Open Sans', verdana, arial, sans-serif; font-size: 12px; fill: rgb(255, 255, 255); fill-opacity: 1; white-space: pre;" transform="translate(701.9118675173545,523.1020061865327)scale(0.42297563662639487)rotate(24.231965363741665)"><tspan class="line" dy="0em" x="0" y="0">Вахтовый метод</tspan><tspan class="line" dy="1.3em" x="0" y="0">0.75%</tspan></text></g></g><g class="slice"><path class="surface" d="M574.7045441983576,463.2044258447303L724.4090883967151,526.4088516894606A325,325 0,0,0 741.2979836662037,474.7033167181616L583.1489918331018,437.35165835908083A162.5,162.5 0,0,1 574.7045441983576,463.2044258447303Z" style="pointer-events: none; stroke-width: 1; fill: rgb(239, 85, 59); fill-opacity: 1; stroke: rgb(255, 255, 255); stroke-opacity: 1; opacity: 0.7;"/><g class="slicetext"><text data-notex="1" class="slicetext" text-anchor="middle" x="0" y="0" style="font-family: 'Open Sans', verdana, arial, sans-serif; font-size: 12px; fill: rgb(68, 68, 68); fill-opacity: 1; white-space: pre;" transform="translate(675.645101945201,478.393232251216)rotate(18.088907860235338)"><tspan class="line" dy="0em" x="0" y="0">Удаленная работа</tspan><tspan class="line" dy="1.3em" x="0" y="0">2.67%</tspan></text></g></g><g class="slice"><path class="surface" d="M583.1489918331018,437.35165835908083L741.2979836662037,474.7033167181616A325,325 0,0,0 744.2969760330674,460.6171683282779L584.6484880165337,430.30858416413895A162.5,162.5 0,0,1 583.1489918331018,437.35165835908083Z" style="pointer-events: none; stroke-width: 1; fill: rgb(239, 85, 59); fill-opacity: 1; stroke: rgb(255, 255, 255); stroke-opacity: 1; opacity: 0.7;"/><g class="slicetext"><text data-notex="1" class="slicetext" text-anchor="middle" x="0" y="0" style="font-family: 'Open Sans', verdana, arial, sans-serif; font-size: 12px; fill: rgb(68, 68, 68); fill-opacity: 1; white-space: pre;" transform="translate(726.1824066780385,462.72817640013454)scale(0.412772311019708)rotate(12.019025550338426)"><tspan class="line" dy="0em" x="0" y="0">Полный день</tspan><tspan class="line" dy="1.3em" x="0" y="0">0.71%</tspan></text></g></g><g class="slice"><path class="surface" d="M584.6484880165337,430.30858416413895L744.2969760330674,460.6171683282779A325,325 0,0,0 746.4582964468003,447.84938500671694L585.7291482234002,423.9246925033585A162.5,162.5 0,0,1 584.6484880165337,430.30858416413895Z" style="pointer-events: none; stroke-width: 1; fill: rgb(239, 85, 59); fill-opacity: 1; stroke: rgb(255, 255, 255); stroke-opacity: 1; opacity: 0.7;"/><g class="slicetext"><text data-notex="1" class="slicetext" text-anchor="middle" x="0" y="0" style="font-family: 'Open Sans', verdana, arial, sans-serif; font-size: 12px; fill: rgb(68, 68, 68); fill-opacity: 1; white-space: pre;" transform="translate(727.8533293108674,450.0276526847822)scale(0.36969964982232634)rotate(9.607902920909794)"><tspan class="line" dy="0em" x="0" y="0">Гибкий график</tspan><tspan class="line" dy="1.3em" x="0" y="0">0.63%</tspan></text></g></g><g class="slice"><path class="surface" d="M585.7291482234002,423.9246925033585L746.4582964468003,447.84938500671694A325,325 0,0,0 747.0487546671152,443.6989658614505L586.0243773335576,421.84948293072523A162.5,162.5 0,0,1 585.7291482234002,423.9246925033585Z" style="pointer-events: none; stroke-width: 1; fill: rgb(239, 85, 59); fill-opacity: 1; stroke: rgb(255, 255, 255); stroke-opacity: 1; opacity: 0.7;"/><g class="slicetext"><text data-notex="1" class="slicetext" text-anchor="middle" x="0" y="0" style="font-family: 'Open Sans', verdana, arial, sans-serif; font-size: 12px; fill: rgb(68, 68, 68); fill-opacity: 1; white-space: pre;" transform="translate(739.8324929028873,444.3601487204223)scale(0.12864373932721496)rotate(8.096835172876354)"><tspan class="line" dy="0em" x="0" y="0">Сменный график</tspan><tspan class="line" dy="1.3em" x="0" y="0">0.21%</tspan></text></g></g><g class="slice"><path class="surface" d="M586.0243773335576,421.84948293072523L747.0487546671152,443.6989658614505A325,325 0,0,0 749.3715745369934,420.20103047846084L587.1857872684967,410.10051523923045A162.5,162.5 0,0,1 586.0243773335576,421.84948293072523Z" style="pointer-events: none; stroke-width: 1; fill: rgb(0, 204, 150); fill-opacity: 1; stroke: rgb(255, 255, 255); stroke-opacity: 1; opacity: 0.7;"/><g class="slicetext"><text data-notex="1" class="slicetext" text-anchor="middle" x="0" y="0" style="font-family: 'Open Sans', verdana, arial, sans-serif; font-size: 12px; fill: rgb(68, 68, 68); fill-opacity: 1; white-space: pre;" transform="translate(722.0567206914005,427.26012302631494)scale(0.6337497595210182)rotate(5.645466186962551)"><tspan class="line" dy="0em" x="0" y="0">Полный день</tspan><tspan class="line" dy="1.3em" x="0" y="0">1.16%</tspan></text></g></g><g class="slice"><path class="surface" d="M587.1857872684967,410.10051523923045L749.3715745369934,420.20103047846084A325,325 0,0,0 749.6352440149476,415.3934513139652L587.3176220074738,407.6967256569826A162.5,162.5 0,0,1 587.1857872684967,410.10051523923045Z" style="pointer-events: none; stroke-width: 1; fill: rgb(0, 204, 150); fill-opacity: 1; stroke: rgb(255, 255, 255); stroke-opacity: 1; opacity: 0.7;"/><g class="slicetext"><text data-notex="1" class="slicetext" text-anchor="middle" x="0" y="0" style="font-family: 'Open Sans', verdana, arial, sans-serif; font-size: 12px; fill: rgb(68, 68, 68); fill-opacity: 1; white-space: pre;" transform="translate(742.3562537960249,416.91665054349886)scale(0.14763111156135528)rotate(3.1392158058417294)"><tspan class="line" dy="0em" x="0" y="0">Гибкий график</tspan><tspan class="line" dy="1.3em" x="0" y="0">0.24%</tspan></text></g></g><g class="slice"><path class="surface" d="M587.3176220074738,407.6967256569826L749.6352440149476,415.3934513139652A325,325 0,0,0 749.7502203951192,412.7394801040495L587.3751101975596,406.3697400520247A162.5,162.5 0,0,1 587.3176220074738,407.6967256569826Z" style="pointer-events: none; stroke-width: 1; fill: rgb(0, 204, 150); fill-opacity: 1; stroke: rgb(255, 255, 255); stroke-opacity: 1; opacity: 0.7;"/><g class="slicetext"><text data-notex="1" class="slicetext" text-anchor="middle" x="0" y="0" style="font-family: 'Open Sans', verdana, arial, sans-serif; font-size: 12px; fill: rgb(68, 68, 68); fill-opacity: 1; white-space: pre;" transform="translate(744.9473012049307,413.5874414369071)scale(0.0826657925979256)rotate(2.4806390633574438)"><tspan class="line" dy="0em" x="0" y="0">Удаленная работа</tspan><tspan class="line" dy="1.3em" x="0" y="0">0.13%</tspan></text></g></g><g class="slice"><path class="surface" d="M587.3751101975596,406.3697400520247L749.7502203951192,412.7394801040495A325,325 0,0,0 749.7693632445637,412.2417604012082L587.3846816222818,406.12088020060406A162.5,162.5 0,0,1 587.3751101975596,406.3697400520247Z" style="pointer-events: none; stroke-width: 1; fill: rgb(0, 204, 150); fill-opacity: 1; stroke: rgb(255, 255, 255); stroke-opacity: 1; opacity: 0.7;"/><g class="slicetext"><text data-notex="1" class="slicetext" text-anchor="middle" x="0" y="0" style="font-family: 'Open Sans', verdana, arial, sans-serif; font-size: 12px; fill: rgb(68, 68, 68); fill-opacity: 1; white-space: pre;" transform="translate(748.8915837944361,412.4046873767915)scale(0.0158870752123923)rotate(2.2025733276418578)"><tspan class="line" dy="0em" x="0" y="0">Сменный график</tspan><tspan class="line" dy="1.3em" x="0" y="0">0.02%</tspan></text></g></g><g class="slice"><path class="surface" d="M587.3846816222818,406.12088020060406L749.7693632445637,412.2417604012082A325,325 0,0,0 749.93714160286,406.3917139299906L587.46857080143,403.1958569649953A162.5,162.5 0,0,1 587.3846816222818,406.12088020060406Z" style="pointer-events: none; stroke-width: 1; fill: rgb(171, 99, 250); fill-opacity: 1; stroke: rgb(255, 255, 255); stroke-opacity: 1; opacity: 0.7;"/><g class="slicetext"><text data-notex="1" class="slicetext" text-anchor="middle" x="0" y="0" style="font-family: 'Open Sans', verdana, arial, sans-serif; font-size: 12px; fill: rgb(68, 68, 68); fill-opacity: 1; white-space: pre;" transform="translate(742.373968385875,408.51037588172727)scale(0.17902249542427479)rotate(1.642783096530252)"><tspan class="line" dy="0em" x="0" y="0">Полный день</tspan><tspan class="line" dy="1.3em" x="0" y="0">0.29%</tspan></text></g></g><g class="slice"><path class="surface" d="M587.46857080143,403.1958569649953L749.93714160286,406.3917139299906A325,325 0,0,0 749.9988311085283,400.87165250545655L587.4994155542641,400.4358262527283A162.5,162.5 0,0,1 587.46857080143,403.1958569649953Z" style="pointer-events: none; stroke-width: 1; fill: rgb(171, 99, 250); fill-opacity: 1; stroke: rgb(255, 255, 255); stroke-opacity: 1; opacity: 0.7;"/><g class="slicetext"><text data-notex="1" class="slicetext" text-anchor="middle" x="0" y="0" style="font-family: 'Open Sans', verdana, arial, sans-serif; font-size: 12px; fill: rgb(68, 68, 68); fill-opacity: 1; white-space: pre;" transform="translate(740.3859953979065,402.9743900403475)scale(0.16648326943333927)rotate(0.6402829440818891)"><tspan class="line" dy="0em" x="0" y="0">Удаленная работа</tspan><tspan class="line" dy="1.3em" x="0" y="0">0.27%</tspan></text></g></g><g class="slice"><path class="surface" d="M587.4994155542641,400.4358262527283L749.9988311085283,400.87165250545655A325,325 0,0,0 749.999976145058,400.12452193273174L587.499988072529,400.06226096636584A162.5,162.5 0,0,1 587.4994155542641,400.4358262527283Z" style="pointer-events: none; stroke-width: 1; fill: rgb(171, 99, 250); fill-opacity: 1; stroke: rgb(255, 255, 255); stroke-opacity: 1; opacity: 0.7;"/><g class="slicetext"><text data-notex="1" class="slicetext" text-anchor="middle" x="0" y="0" style="font-family: 'Open Sans', verdana, arial, sans-serif; font-size: 12px; fill: rgb(68, 68, 68); fill-opacity: 1; white-space: pre;" transform="translate(748.841691161837,400.41769813392204)scale(0.023788847564172835)rotate(0.08781023233120777)"><tspan class="line" dy="0em" x="0" y="0">Гибкий график</tspan><tspan class="line" dy="1.3em" x="0" y="0">0.04%</tspan></text></g></g><g class="slice"><path class="surface" d="M587.499988072529,400.06226096636584L749.999976145058,400.12452193273174A325,325 0,0,0 749.9999973494508,400.04150731181306L587.4999986747255,400.0207536559065A162.5,162.5 0,0,1 587.499988072529,400.06226096636584Z" style="pointer-events: none; stroke-width: 1; fill: rgb(171, 99, 250); fill-opacity: 1; stroke: rgb(255, 255, 255); stroke-opacity: 1; opacity: 0.7;"/><g class="slicetext"><text data-notex="1" class="slicetext" text-anchor="middle" x="0" y="0" style="font-family: 'Open Sans', verdana, arial, sans-serif; font-size: 12px; fill: rgb(68, 68, 68); fill-opacity: 1; white-space: pre;" transform="translate(749.8623116289567,400.07418980449205)scale(0.002659752606238843)rotate(0.014635038721849014)"><tspan class="line" dy="0em" x="0" y="0">Вахтовый метод</tspan><tspan class="line" dy="1.3em" x="0" y="0">0.00%</tspan></text></g></g><g class="slice"><path class="surface" d="M587.4999986747255,400.0207536559065L749.9999973494508,400.04150731181306A325,325 0,0,0 750,399.9999999999998L587.5,399.9999999999999A162.5,162.5 0,0,1 587.4999986747255,400.0207536559065Z" style="pointer-events: none; stroke-width: 1; fill: rgb(171, 99, 250); fill-opacity: 1; stroke: rgb(255, 255, 255); stroke-opacity: 1; opacity: 0.7;"/><g class="slicetext"><text data-notex="1" class="slicetext" text-anchor="middle" x="0" y="0" style="font-family: 'Open Sans', verdana, arial, sans-serif; font-size: 12px; fill: rgb(68, 68, 68); fill-opacity: 1; white-space: pre;" transform="translate(749.9270710750467,400.0163524237804)scale(0.0013304057190819821)rotate(0.0036587596803769884)"><tspan class="line" dy="0em" x="0" y="0">Сменный график</tspan><tspan class="line" dy="1.3em" x="0" y="0">0.00%</tspan></text></g></g></g></g><g class="glimages"/><defs id="topdefs-69ddb3"><g class="clips"/></defs><g class="layer-above"><g class="imagelayer"/><g class="shapelayer"/></g><g class="infolayer"><g class="g-gtitle"><text class="gtitle" x="37.5" y="25" text-anchor="start" dy="0em" style="font-family: 'Open Sans', verdana, arial, sans-serif; font-size: 17px; fill: rgb(42, 63, 95); opacity: 1; font-weight: normal; white-space: pre;">Тип занятости и график работы</text></g></g></svg>