<svg class="main-svg" xmlns="http://www.w3.org/2000/svg" xmlns:xlink="http://www.w3.org/1999/xlink" width="550" height="550" style="" viewBox="0 0 550 550"><rect x="0" y="0" width="550" height="550" style="fill: rgb(255, 255, 255); fill-opacity: 1;"/><defs id="defs-5c9e2b"><g class="clips"/><g class="gradients"/><g class="patterns"/></defs><g class="bglayer"/><g class="layer-below"><g class="imagelayer"/><g class="shapelayer"/></g><g class="cartesianlayer"/><g class="polarlayer"/><g class="smithlayer"/><g class="ternarylayer"/><g class="geolayer"/><g class="funnelarealayer"/><g class="pielayer"/><g class="iciclelayer"/><g class="treemaplayer"/><g class="sunburstlayer"><g class="trace sunburst" stroke-linejoin="round" style="opacity: 1;"><g class="slice"><path class="surface" d="M340,300L550,300A210,210 0,1,0 134.1197341591867,341.3922231502011L340,300A0,0 0,1,1 340,300Z" style="pointer-events: none; stroke-width: 1; fill: rgb(99, 110, 250); fill-opacity: 1; stroke: rgb(255, 255, 255); stroke-opacity: 1; opacity: 0.7;"/><g class="slicetext"><text data-notex="1" class="slicetext" text-anchor="middle" x="0" y="0" style="font-family: 'Open Sans', verdana, arial, sans-serif; font-size: 12px; fill: rgb(255, 255, 255); fill-opacity: 1; white-space: pre;" transform="translate(332.9781821641881,234.7347791111048)rotate(-5.683883163607561)"><tspan class="line" dy="0em" x="0" y="0">От 1 года до 3 лет</tspan><tspan class="line" dy="1.3em" x="0" y="0">53.16%</tspan></text></g></g><g class="slice"><path class="surface" d="M340,300L134.1197341591867,341.3922231502011A210,210 0,0,0 437.1371658015771,486.1837023480759L340,300A0,0 0,0,1 340,300Z" style="pointer-events: none; stroke-width: 1; fill: rgb(239, 85, 59); fill-opacity: 1; stroke: rgb(255, 255, 255); stroke-opacity: 1; opacity: 0.7;"/><g class="slicetext"><text data-notex="1" class="slicetext" text-anchor="middle" x="0" y="0" style="font-family: 'Open Sans', verdana, arial, sans-serif; font-size: 12px; fill: rgb(68, 68, 68); fill-opacity: 1; white-space: pre;" transform="translate(289.16573656042027,401.98505292170415)"><tspan class="line" dy="0em" x="0" y="0">От 3 до 6 лет</tspan><tspan class="line" dy="1.3em" x="0" y="0">29.50%</tspan></text></g></g><g class="slice"><path class="surface" d="M340,300L437.1371658015771,486.1837023480759A210,210 0,0,0 546.9459290673541,335.6844846179632L340,300A0,0 0,0,1 340,300Z" style="pointer-events: none; stroke-width: 1; fill: rgb(0, 204, 150); fill-opacity: 1; stroke: rgb(255, 255, 255); stroke-opacity: 1; opacity: 0.7;"/><g class="slicetext"><text data-notex="1" class="slicetext" text-anchor="middle" x="0" y="0" style="font-family: 'Open Sans', verdana, arial, sans-serif; font-size: 12px; fill: rgb(68, 68, 68); fill-opacity: 1; white-space: pre;" transform="translate(457.5168226184121,382.43912664920504)"><tspan class="line" dy="0em" x="0" y="0">Нет опыта</tspan><tspan class="line" dy="1.3em" x="0" y="0">14.63%</tspan></text></g></g><g class="slice"><path class="surface" d="M340,300L546.9459290673541,335.6844846179632A210,210 0,0,0 550,300.00000000000006L340,300A0,0 0,0,1 340,300Z" style="pointer-events: none; stroke-width: 1; fill: rgb(171, 99, 250); fill-opacity: 1; stroke: rgb(255, 255, 255); stroke-opacity: 1; opacity: 0.7;"/><g class="slicetext"><text data-notex="1" class="slicetext" text-anchor="middle" x="0" y="0" style="font-family: 'Open Sans', verdana, arial, sans-serif; font-size: 12px; fill: rgb(68, 68, 68); fill-opacity: 1; white-space: pre;" transform="translate(517.8298090590754,312.5579346020191)scale(0.8024982349720554)rotate(4.891761692786133)"><tspan class="line" dy="0em" x="0" y="0">Более 6 лет</tspan><tspan class="line" dy="1.3em" x="0" y="0">2.72%</tspan></text></g></g></g></g><g class="glimages"/><defs id="topdefs-5c9e2b"><g class="clips"/></defs><g class="layer-above"><g class="imagelayer"/><g class="shapelayer"/></g><g class="infolayer"><g class="g-gtitle"><text class="gtitle" x="27.5" y="25" text-anchor="start" dy="0em" style="font-family: 'Open Sans', verdana, arial, sans-serif; font-size: 17px; fill: rgb(42, 63, 95); opacity: 1; font-weight: normal; white-space: pre;">Требуемый опыт работы, указанный в вакансиях</text></g></g></svg>