<svg class="main-svg" xmlns="http://www.w3.org/2000/svg" xmlns:xlink="http://www.w3.org/1999/xlink" width="550" height="550" style="" viewBox="0 0 550 550"><rect x="0" y="0" width="550" height="550" style="fill: rgb(255, 255, 255); fill-opacity: 1;"/><defs id="defs-3ca45e"><g class="clips"/><g class="gradients"/><g class="patterns"/></defs><g class="bglayer"/><g class="layer-below"><g class="imagelayer"/><g class="shapelayer"/></g><g class="cartesianlayer"/><g class="polarlayer"/><g class="smithlayer"/><g class="ternarylayer"/><g class="geolayer"/><g class="funnelarealayer"/><g class="pielayer"/><g class="iciclelayer"/><g class="treemaplayer"/><g class="sunburstlayer"><g class="trace sunburst" stroke-linejoin="round" style="opacity: 1;"><g class="slice"><path class="surface" d="M340,300L550,300A210,210 0,1,0 137.55394293342454,355.81750601914126L340,300A0,0 0,1,1 340,300Z" style="pointer-events: none; stroke-width: 1; fill: rgb(99, 110, 250); fill-opacity: 1; stroke: rgb(255, 255, 255); stroke-opacity: 1; opacity: 0.7;"/><g class="slicetext"><text data-notex="1" class="slicetext" text-anchor="middle" x="0" y="0" style="font-family: 'Open Sans', verdana, arial, sans-serif; font-size: 12px; fill: rgb(255, 255, 255); fill-opacity: 1; white-space: pre;" transform="translate(329.2607552776423,223.44190493033278)rotate(-7.7071772669065695)"><tspan class="line" dy="0em" x="0" y="0">it specialists</tspan><tspan class="line" dy="1.3em" x="0" y="0">54.28%</tspan></text></g></g><g class="slice"><path class="surface" d="M340,300L137.55394293342454,355.81750601914126A210,210 0,0,0 490.33226128231644,446.6295032309165L340,300A0,0 0,0,1 340,300Z" style="pointer-events: none; stroke-width: 1; fill: rgb(239, 85, 59); fill-opacity: 1; stroke: rgb(255, 255, 255); stroke-opacity: 1; opacity: 0.7;"/><g class="slicetext"><text data-notex="1" class="slicetext" text-anchor="middle" x="0" y="0" style="font-family: 'Open Sans', verdana, arial, sans-serif; font-size: 12px; fill: rgb(68, 68, 68); fill-opacity: 1; white-space: pre;" transform="translate(311.9255424212908,405.6047059037098)"><tspan class="line" dy="0em" x="0" y="0">not it</tspan><tspan class="line" dy="1.3em" x="0" y="0">33.42%</tspan></text></g></g><g class="slice"><path class="surface" d="M340,300L490.33226128231644,446.6295032309165A210,210 0,0,0 549.6055261161918,312.8655906026295L340,300A0,0 0,0,1 340,300Z" style="pointer-events: none; stroke-width: 1; fill: rgb(0, 204, 150); fill-opacity: 1; stroke: rgb(255, 255, 255); stroke-opacity: 1; opacity: 0.7;"/><g class="slicetext"><text data-notex="1" class="slicetext" text-anchor="middle" x="0" y="0" style="font-family: 'Open Sans', verdana, arial, sans-serif; font-size: 12px; fill: rgb(68, 68, 68); fill-opacity: 1; white-space: pre;" transform="translate(482.0170824477916,359.79187903531624)"><tspan class="line" dy="0em" x="0" y="0">managers</tspan><tspan class="line" dy="1.3em" x="0" y="0">11.33%</tspan></text></g></g><g class="slice"><path class="surface" d="M340,300L549.6055261161918,312.8655906026295A210,210 0,0,0 550,299.9999999999999L340,300A0,0 0,0,1 340,300Z" style="pointer-events: none; stroke-width: 1; fill: rgb(171, 99, 250); fill-opacity: 1; stroke: rgb(255, 255, 255); stroke-opacity: 1; opacity: 0.7;"/><g class="slicetext"><text data-notex="1" class="slicetext" text-anchor="middle" x="0" y="0" style="font-family: 'Open Sans', verdana, arial, sans-serif; font-size: 12px; fill: rgb(68, 68, 68); fill-opacity: 1; white-space: pre;" transform="translate(533.9163456732439,304.79859688122053)scale(0.34695071013940676)rotate(1.7562046466247239)"><tspan class="line" dy="0em" x="0" y="0">data-scientists</tspan><tspan class="line" dy="1.3em" x="0" y="0">0.98%</tspan></text></g></g></g></g><g class="glimages"/><defs id="topdefs-3ca45e"><g class="clips"/></defs><g class="layer-above"><g class="imagelayer"/><g class="shapelayer"/></g><g class="infolayer"><g class="g-gtitle"><text class="gtitle" x="27.5" y="25" text-anchor="start" dy="0em" style="font-family: 'Open Sans', verdana, arial, sans-serif; font-size: 17px; fill: rgb(42, 63, 95); opacity: 1; font-weight: normal; white-space: pre;">Сферы деятельности в вакансиях</text></g></g></svg>